<svg width="24" height="24" viewBox="0 0 24 24" fill="none" xmlns="http://www.w3.org/2000/svg">
<path d="M22 9H15V15H22V9Z" fill="#777777"/>
<path d="M15 15H9V22H15V15Z" fill="#777777"/>
<path d="M9 9H2V15H9V9Z" fill="#777777"/>
<path d="M15 2H9V9H15V2Z" fill="#777777"/>
<path d="M15.5 2H2V3.53846V20.4615V22H22V20.4615V8.5" stroke="#777777" stroke-width="2" stroke-linecap="round" stroke-linejoin="round"/>
<path d="M8.9231 2V22" stroke="#777777" stroke-linecap="round" stroke-linejoin="round"/>
<path d="M15.0769 2V22" stroke="#777777" stroke-linecap="round" stroke-linejoin="round"/>
<path d="M22 8.9231H2" stroke="#777777" stroke-linecap="round" stroke-linejoin="round"/>
<path d="M22 15.0769H2" stroke="#777777" stroke-linecap="round" stroke-linejoin="round"/>
<path d="M20.0715 2.35718V5.64289" stroke="#777777" stroke-linecap="round"/>
<path d="M18.3571 3.9729H21.6429" stroke="#777777" stroke-linecap="round"/>
<path d="M22.5385 1H17.4615C17.2066 1 17 1.20664 17 1.46154V6.53846C17 6.79336 17.2066 7 17.4615 7H22.5385C22.7934 7 23 6.79336 23 6.53846V1.46154C23 1.20664 22.7934 1 22.5385 1Z" stroke="#777777" stroke-linecap="round" stroke-linejoin="round"/>
</svg>
